<svg width="24" height="24" viewBox="0 0 24 24" fill="none" xmlns="http://www.w3.org/2000/svg">
<mask id="mask0_1_7960" style="mask-type:alpha" maskUnits="userSpaceOnUse" x="0" y="0" width="24" height="24">
<rect width="24" height="24" fill="#D9D9D9"/>
</mask>
<g mask="url(#mask0_1_7960)">
<path d="M10.6 16.6001L17.65 9.55012L16.25 8.15012L10.6 13.8001L7.75 10.9501L6.35 12.3501L10.6 16.6001ZM12 22.0001C10.6167 22.0001 9.31667 21.7375 8.1 21.2121C6.88333 20.6875 5.825 19.9751 4.925 19.0751C4.025 18.1751 3.31267 17.1168 2.788 15.9001C2.26267 14.6835 2 13.3835 2 12.0001C2 10.6168 2.26267 9.31679 2.788 8.10012C3.31267 6.88346 4.025 5.82512 4.925 4.92512C5.825 4.02512 6.88333 3.31246 8.1 2.78712C9.31667 2.26246 10.6167 2.00012 12 2.00012C13.3833 2.00012 14.6833 2.26246 15.9 2.78712C17.1167 3.31246 18.175 4.02512 19.075 4.92512C19.975 5.82512 20.6873 6.88346 21.212 8.10012C21.7373 9.31679 22 10.6168 22 12.0001C22 13.3835 21.7373 14.6835 21.212 15.9001C20.6873 17.1168 19.975 18.1751 19.075 19.0751C18.175 19.9751 17.1167 20.6875 15.9 21.2121C14.6833 21.7375 13.3833 22.0001 12 22.0001Z" fill="#6394F7"/>
</g>
</svg>
