<svg width="40" height="40" viewBox="0 0 40 40" fill="none" xmlns="http://www.w3.org/2000/svg">
<mask id="mask0_1_7888" style="mask-type:alpha" maskUnits="userSpaceOnUse" x="0" y="0" width="40" height="40">
<rect width="40" height="40" fill="#D9D9D9"/>
</mask>
<g mask="url(#mask0_1_7888)">
<path d="M20 24.9584C19.7778 24.9584 19.5628 24.9167 19.355 24.8334C19.1462 24.7501 18.9723 24.639 18.8334 24.5001L11.1667 16.8334C10.8612 16.5279 10.7084 16.139 10.7084 15.6667C10.7084 15.1945 10.8612 14.8056 11.1667 14.5001C11.4723 14.1945 11.8612 14.0417 12.3334 14.0417C12.8056 14.0417 13.1945 14.1945 13.5 14.5001L20 21.0001L26.5 14.5001C26.8056 14.1945 27.1945 14.0417 27.6667 14.0417C28.1389 14.0417 28.5278 14.1945 28.8334 14.5001C29.1389 14.8056 29.2917 15.1945 29.2917 15.6667C29.2917 16.139 29.1389 16.5279 28.8334 16.8334L21.1667 24.5001C21 24.6667 20.8195 24.7845 20.625 24.8534C20.4306 24.9234 20.2223 24.9584 20 24.9584Z" fill="#0C1018"/>
</g>
</svg>
